<?xml version="1.0" encoding="UTF-8" standalone="no"?>
<svg
   width="63.999996mm"
   height="63.999985mm"
   viewBox="0 0 63.999996 63.999985"
   version="1.1"
   id="svg5"
   sodipodi:docname="wifi.svg"
   inkscape:version="1.2.1 (9c6d41e410, 2022-07-14)"
   xml:space="preserve"
   inkscape:export-filename="programming/rust/tzompantli/svgs/reboot.svg"
   inkscape:export-xdpi="96"
   inkscape:export-ydpi="96"
   xmlns:inkscape="http://www.inkscape.org/namespaces/inkscape"
   xmlns:sodipodi="http://sodipodi.sourceforge.net/DTD/sodipodi-0.dtd"
   xmlns="http://www.w3.org/2000/svg"
   xmlns:svg="http://www.w3.org/2000/svg"><defs
     id="defs9" /><sodipodi:namedview
     id="namedview7"
     pagecolor="#752a2a"
     bordercolor="#eeeeee"
     borderopacity="1"
     inkscape:showpageshadow="0"
     inkscape:pageopacity="0"
     inkscape:pagecheckerboard="0"
     inkscape:deskcolor="#752a2a"
     inkscape:document-units="mm"
     showgrid="false"
     showguides="true"
     inkscape:zoom="0.3535534"
     inkscape:cx="3088.6423"
     inkscape:cy="758.01845"
     inkscape:window-width="2532"
     inkscape:window-height="1380"
     inkscape:window-x="14"
     inkscape:window-y="46"
     inkscape:window-maximized="1"
     inkscape:current-layer="svg5" /><rect
     style="fill:#666666;fill-opacity:1;stroke-width:15;paint-order:markers fill stroke"
     id="rect411"
     width="64"
     height="64"
     x="3.6413021e-05"
     y="8.3049144e-06"
     inkscape:export-filename="programming/rust/tzompantli/svgs/missing.svg"
     inkscape:export-xdpi="96"
     inkscape:export-ydpi="96" /><rect
     style="fill:#181818;fill-opacity:1;stroke:none;stroke-width:15;paint-order:markers fill stroke"
     id="rect467"
     width="50"
     height="50"
     x="7.0000362"
     y="7.0000081" /><path
     d="m 32.431936,13.889998 q 3.048,0 5.2324,1.1176 2.2352,1.0668 3.3528,2.8956 1.1176,1.8288 1.1176,3.9116 0,1.9812 -0.7112,3.4036 -0.6604,1.3716 -1.6256,2.2352 -0.9652,0.8636 -2.5908,2.032 -2.1336,1.4732 -3.2004,2.7432 -1.0668,1.2192 -1.0668,3.302 v 2.286 h -4.6228 v -2.54 q 0,-2.1844 0.7112,-3.7084 0.762,-1.524 1.778,-2.4384 1.016,-0.9144 2.6924,-2.0828 1.9304,-1.27 2.8448,-2.286 0.9144,-1.016 0.9144,-2.6416 0,-2.0828 -1.3716,-3.2004 -1.3716,-1.1684 -3.7592,-1.1684 -4.064,0 -7.0612,3.6576 l -3.2004,-2.4892 q 4.2672,-5.0292 10.5664,-5.0292 z m -1.6764,29.1592 q 1.524,0 2.54,1.016 1.016,1.016 1.016,2.4892 0,1.4732 -1.016,2.54 -1.016,1.016 -2.54,1.016 -1.4732,0 -2.4892,-1.016 -1.016,-1.0668 -1.016,-2.54 0,-1.4732 1.016,-2.4892 1.016,-1.016 2.4892,-1.016 z"
     id="path5724"
     style="font-size:50.8px;fill:#666666;stroke-width:15;paint-order:markers fill stroke" /></svg>
