<?xml version="1.0" encoding="UTF-8"?>
<svg viewBox="0 0 64 64" xmlns="http://www.w3.org/2000/svg">
	<path d="m0 0h64v64h-64z" fill="#181818" stroke="#666" stroke-width="4"/>
	<path d="m32.431936 13.889998q3.048 0 5.2324 1.1176 2.2352 1.0668 3.3528 2.8956 1.1176 1.8288 1.1176 3.9116 0 1.9812-.7112 3.4036-.6604 1.3716-1.6256 2.2352-.9652.8636-2.5908 2.032-2.1336 1.4732-3.2004 2.7432-1.0668 1.2192-1.0668 3.302v2.286h-4.6228v-2.54q0-2.1844.7112-3.7084.762-1.524 1.778-2.4384 1.016-.9144 2.6924-2.0828 1.9304-1.27 2.8448-2.286.9144-1.016.9144-2.6416 0-2.0828-1.3716-3.2004-1.3716-1.1684-3.7592-1.1684-4.064 0-7.0612 3.6576l-3.2004-2.4892q4.2672-5.0292 10.5664-5.0292zm-1.6764 29.1592q1.524 0 2.54 1.016 1.016 1.016 1.016 2.4892 0 1.4732-1.016 2.54-1.016 1.016-2.54 1.016-1.4732 0-2.4892-1.016-1.016-1.0668-1.016-2.54 0-1.4732 1.016-2.4892 1.016-1.016 2.4892-1.016z" fill="#666" stroke-width="15"/>
</svg>
